<svg width="32" height="32" viewBox="0 0 32 32" fill="none" xmlns="http://www.w3.org/2000/svg">
<g clip-path="url(#clip0_937_620)">
<path d="M9.00391 18C9.79956 18 10.5626 17.6839 11.1252 17.1213C11.6878 16.5587 12.0039 15.7956 12.0039 15C12.0039 14.2044 11.6878 13.4413 11.1252 12.8787C10.5626 12.3161 9.79956 12 9.00391 12C8.20826 12 7.44519 12.3161 6.88259 12.8787C6.31998 13.4413 6.00391 14.2044 6.00391 15C6.00391 15.7956 6.31998 16.5587 6.88259 17.1213C7.44519 17.6839 8.20826 18 9.00391 18Z" fill="#464646"/>
<path d="M28.0039 26C28.0039 27.0609 27.5825 28.0783 26.8323 28.8284C26.0822 29.5786 25.0648 30 24.0039 30H4.00391C2.94304 30 1.92562 29.5786 1.17548 28.8284C0.425334 28.0783 0.00390625 27.0609 0.00390625 26V10C0.00390572 8.93983 0.424784 7.92302 1.17406 7.17299C1.92335 6.42296 2.93973 6.00106 3.99991 6C3.99991 4.93913 4.42133 3.92172 5.17148 3.17157C5.92162 2.42143 6.93904 2 7.99991 2H27.9999C29.0608 2 30.0782 2.42143 30.8283 3.17157C31.5785 3.92172 31.9999 4.93913 31.9999 6V22C31.9999 23.0602 31.579 24.077 30.8297 24.827C30.0805 25.577 29.0641 25.9989 28.0039 26ZM27.9999 4H7.99991C7.46947 4 6.96077 4.21071 6.58569 4.58579C6.21062 4.96086 5.99991 5.46957 5.99991 6H24.0039C25.0648 6 26.0822 6.42143 26.8323 7.17157C27.5825 7.92172 28.0039 8.93913 28.0039 10V24C28.5336 23.9989 29.0413 23.7878 29.4155 23.4128C29.7897 23.0378 29.9999 22.5297 29.9999 22V6C29.9999 5.46957 29.7892 4.96086 29.4141 4.58579C29.039 4.21071 28.5303 4 27.9999 4ZM4.00391 8C3.47347 8 2.96477 8.21071 2.58969 8.58579C2.21462 8.96086 2.00391 9.46957 2.00391 10V26L7.29591 21.292C7.45937 21.1291 7.67414 21.0278 7.90378 21.0052C8.13343 20.9826 8.36383 21.0401 8.55591 21.168L13.8759 24.714L21.2959 17.294C21.4442 17.1455 21.6355 17.0475 21.8426 17.0138C22.0497 16.98 22.2622 17.0123 22.4499 17.106L26.0039 21V10C26.0039 9.46957 25.7932 8.96086 25.4181 8.58579C25.043 8.21071 24.5343 8 24.0039 8H4.00391Z" fill="#464646"/>
</g>
<defs>
<clipPath id="clip0_937_620">
<rect width="32" height="32" fill="white"/>
</clipPath>
</defs>
</svg>
