<svg width="32" height="32" viewBox="0 0 32 32" fill="none" xmlns="http://www.w3.org/2000/svg">
<path d="M12.8 23.1111V21.3333H1.616L1.6 28.4444C1.6 30.4178 3.024 32 4.8 32H27.2C28.976 32 30.4 30.4178 30.4 28.4444V21.3333H19.2V23.1111H12.8ZM28.8 7.11111H22.384V3.55556L19.184 0H12.784L9.584 3.55556V7.11111H3.2C1.44 7.11111 0 8.71111 0 10.6667V16C0 17.9733 1.424 19.5556 3.2 19.5556H12.8V16H19.2V19.5556H28.8C30.56 19.5556 32 17.9556 32 16V10.6667C32 8.71111 30.56 7.11111 28.8 7.11111ZM19.2 7.11111H12.8V3.55556H19.2V7.11111Z" fill="#464646"/>
</svg>
