<svg width="32" height="32" viewBox="0 0 32 32" fill="none" xmlns="http://www.w3.org/2000/svg">
<path d="M8.66667 14.6641L16 2.66406L23.3333 14.6641H8.66667ZM23.3333 29.3307C21.6667 29.3307 20.2498 28.7472 19.0827 27.5801C17.9156 26.413 17.3324 24.9965 17.3333 23.3307C17.3333 21.6641 17.9169 20.2472 19.084 19.0801C20.2511 17.913 21.6676 17.3298 23.3333 17.3307C25 17.3307 26.4169 17.9143 27.584 19.0814C28.7511 20.2485 29.3342 21.665 29.3333 23.3307C29.3333 24.9974 28.7498 26.4143 27.5827 27.5814C26.4156 28.7485 24.9991 29.3316 23.3333 29.3307ZM4 28.6641V17.9974H14.6667V28.6641H4Z" fill="#464646"/>
</svg>
