<svg width="82" height="28" viewBox="0 0 82 28" fill="none" xmlns="http://www.w3.org/2000/svg">
<path d="M67.5107 27.8809C61.2419 28.2556 53.544 22.7718 53.5617 13.9512C53.5617 6.80985 59.1358 -0.142732 67.7568 0.00222789C76.0263 0.138982 81.7386 6.29292 81.7208 14.0141C81.7439 15.8707 81.3895 17.7127 80.6792 19.4282C79.9688 21.1437 78.9173 22.697 77.5884 23.9938C76.2595 25.2905 74.681 26.3038 72.9486 26.972C71.2162 27.6402 69.3662 27.9494 67.5107 27.8809ZM79.0308 13.932C79.0149 10.8988 77.7946 7.99615 75.6385 5.86263C73.4824 3.72911 70.5671 2.53947 67.5339 2.55543C64.5007 2.57139 61.598 3.79163 59.4645 5.94772C57.331 8.10381 56.1414 11.0191 56.1573 14.0523C56.1792 20.6289 61.4183 25.3496 67.5859 25.3879C74.6301 25.4262 79.3016 19.4158 79.0308 13.9293V13.932Z" fill="black"/>
<path d="M49.9935 27.5828C50.2249 27.8347 50.5469 27.9843 50.8887 27.9988C51.2304 28.0133 51.5639 27.8914 51.8158 27.66C52.0677 27.4286 52.2173 27.1067 52.2318 26.7649C52.2463 26.4232 52.1244 26.0897 51.893 25.8378L42.535 15.6619C42.2992 15.4288 41.9827 15.2954 41.6512 15.2895C41.3197 15.2836 40.9987 15.4056 40.7548 15.6301C40.5108 15.8547 40.3628 16.1646 40.3413 16.4954C40.3199 16.8263 40.4267 17.1527 40.6395 17.4069L49.9935 27.5828Z" fill="black"/>
<path d="M53.217 1.24676V8.1337C53.2159 8.39763 53.1102 8.65036 52.9231 8.83647C52.736 9.02259 52.4827 9.1269 52.2187 9.12653C51.9539 9.12475 51.7004 9.01894 51.5128 8.83193C51.3253 8.64492 51.2188 8.39169 51.2163 8.12686V3.79859L38.2124 16.767C37.9732 16.987 37.6584 17.1062 37.3335 17.0999C37.0085 17.0937 36.6986 16.9623 36.4681 16.7332C36.2376 16.5041 36.1043 16.195 36.0961 15.8701C36.0878 15.5453 36.2051 15.2297 36.4236 14.9892L41.7816 9.64757L41.8117 9.60927L49.4385 1.99891H45.0802C44.8167 1.99891 44.564 1.89435 44.3776 1.70819C44.1912 1.52204 44.0863 1.26951 44.0859 1.00607V1.00607C44.0858 0.874382 44.1116 0.743952 44.1619 0.622253C44.2122 0.500554 44.286 0.389978 44.3791 0.29686C44.4723 0.203742 44.5828 0.129912 44.7045 0.0796002C44.8262 0.0292883 44.9567 0.00348302 45.0884 0.00366304H52.0874C52.3745 0.0330988 52.6427 0.160309 52.8471 0.363973C53.0515 0.567636 53.1797 0.835375 53.2102 1.12231C53.2152 1.1636 53.2175 1.20517 53.217 1.24676V1.24676Z" fill="url(#paint0_linear_101_12)"/>
<path d="M33.4804 27.8987H34.4897C34.5894 27.8989 34.6881 27.8795 34.7802 27.8415C34.8724 27.8035 34.9562 27.7477 35.0268 27.6774C35.0974 27.607 35.1534 27.5235 35.1917 27.4315C35.2301 27.3394 35.2499 27.2408 35.25 27.1411V0.763966C35.2499 0.664295 35.2301 0.565635 35.1917 0.473619C35.1534 0.381603 35.0974 0.298034 35.0268 0.227682C34.9562 0.157331 34.8724 0.101575 34.7802 0.0635986C34.6881 0.025622 34.5894 0.00616914 34.4897 0.00634889H33.4804C33.3808 0.00616914 33.282 0.025622 33.1899 0.0635986C33.0977 0.101575 33.014 0.157331 32.9434 0.227682C32.8728 0.298034 32.8167 0.381603 32.7784 0.473619C32.7401 0.565635 32.7203 0.664295 32.7201 0.763966V27.1411C32.7203 27.2408 32.7401 27.3394 32.7784 27.4315C32.8167 27.5235 32.8728 27.607 32.9434 27.6774C33.014 27.7477 33.0977 27.8035 33.1899 27.8415C33.282 27.8795 33.3808 27.8989 33.4804 27.8987V27.8987Z" fill="black"/>
<path d="M27.5663 8.16393C25.3591 3.04796 19.5443 -0.384569 12.4112 0.0421038C7.73699 0.498863 3.02444 3.28865 0.850052 9.44395C-0.94006 14.5203 0.1444 19.2137 3.65761 23.144C10.1712 30.4343 21.6298 28.8302 26.2754 21.8093C29.1595 17.4454 29.6067 12.8984 27.5663 8.16393ZM25.422 21.1419C21.0021 27.8141 10.7223 28.9259 4.80772 22.8212C2.44461 20.3788 1.07706 17.3907 1.13724 14.1209C1.15228 7.47879 6.04671 1.9047 12.4167 1.16075C18.2301 0.476982 22.9851 2.44351 25.9909 7.54444C28.6604 12.0724 28.3664 16.7015 25.4207 21.1419H25.422Z" fill="black"/>
<path d="M25.1286 8.2732C22.652 3.88886 18.6314 1.89635 13.6645 2.20542C8.85757 2.50354 5.20623 4.81469 3.24107 9.35219C0.981895 14.5666 2.69406 19.4405 6.50266 22.8457C8.72081 24.8246 11.4436 25.6464 14.7872 25.6888C18.1692 25.5849 21.3514 24.2994 23.8321 21.3401C26.9337 17.6327 27.649 12.7355 25.1286 8.2732ZM12.7291 11.0179C13.5031 11.5772 14.1732 12.2828 14.8747 12.9324C15.5517 13.5656 15.5585 14.237 14.8747 14.8716C14.191 15.5061 13.5373 16.1981 12.7838 16.7479C12.0303 17.2976 11.8812 17.9786 12.0686 18.8607H16.8413C16.8618 18.5503 16.8577 18.248 16.9055 17.9527C16.9496 17.6722 17.0916 17.4165 17.3065 17.2309C17.5213 17.0453 17.795 16.942 18.0789 16.9393C18.3641 16.9419 18.6383 17.0503 18.848 17.2437C19.0578 17.437 19.1882 17.7014 19.214 17.9855C19.2646 18.7349 19.2646 19.487 19.214 20.2364C19.1661 20.8915 18.7121 21.2553 18.0789 21.2607C15.6429 21.2826 13.2068 21.2826 10.7708 21.2607C10.087 21.2539 9.65211 20.778 9.6357 20.0778C9.61382 19.044 9.5851 18.0087 9.65484 16.9817C9.67809 16.6316 9.92835 16.2364 10.1854 15.9738C10.8692 15.2764 11.6255 14.6405 12.4268 13.9102C11.6515 13.2032 10.8815 12.581 10.2169 11.8589C9.90261 11.5025 9.70586 11.058 9.65347 10.5857C9.56868 9.65578 9.62065 8.71081 9.63159 7.77268C9.64253 6.86189 10.0596 6.3983 10.9472 6.39009C13.2893 6.37186 15.6315 6.37186 17.9736 6.39009C18.7859 6.3983 19.2167 6.86189 19.2427 7.67695C19.2605 8.28687 19.2564 8.8968 19.2427 9.50809C19.2249 10.3423 18.7449 10.8756 18.0488 10.8647C17.376 10.8537 16.9247 10.3423 16.8823 9.54364C16.8727 9.35902 16.8618 9.17304 16.8495 8.9515H12.0631C11.9345 9.78707 11.9633 10.464 12.7291 11.0179Z" fill="black"/>
<defs>
<linearGradient id="paint0_linear_101_12" x1="36.0571" y1="8.56584" x2="53.217" y2="8.56584" gradientUnits="userSpaceOnUse">
<stop stop-color="#0085FE"/>
<stop offset="1" stop-color="#29E5FF"/>
</linearGradient>
</defs>
</svg>
