<svg width="32" height="32" viewBox="0 0 32 32" fill="none" xmlns="http://www.w3.org/2000/svg">
<path d="M27.5625 6.5625L21.4438 0.4375C21.1625 0.15625 20.7813 0 20.3813 0H20V8H28V7.61875C28 7.225 27.8438 6.84375 27.5625 6.5625ZM18 8.5V0H5.5C4.66875 0 4 0.66875 4 1.5V30.5C4 31.3313 4.66875 32 5.5 32H26.5C27.3313 32 28 31.3313 28 30.5V10H19.5C18.675 10 18 9.325 18 8.5ZM8 4.5C8 4.22375 8.22375 4 8.5 4H13.5C13.7763 4 14 4.22375 14 4.5V5.5C14 5.77625 13.7763 6 13.5 6H8.5C8.22375 6 8 5.77625 8 5.5V4.5ZM8 9.5V8.5C8 8.22375 8.22375 8 8.5 8H13.5C13.7763 8 14 8.22375 14 8.5V9.5C14 9.77625 13.7763 10 13.5 10H8.5C8.22375 10 8 9.77625 8 9.5ZM17 25.9925V27.5C17 27.7763 16.7763 28 16.5 28H15.5C15.2237 28 15 27.7763 15 27.5V25.9819C14.2944 25.9456 13.6081 25.6994 13.0394 25.2725C12.7956 25.0894 12.7831 24.7244 13.0037 24.5138L13.7381 23.8131C13.9112 23.6481 14.1688 23.6406 14.3713 23.7675C14.6131 23.9187 14.8875 24 15.1725 24H16.9294C17.3356 24 17.6669 23.63 17.6669 23.1756C17.6669 22.8037 17.4412 22.4762 17.1187 22.38L14.3062 21.5362C13.1444 21.1875 12.3325 20.0725 12.3325 18.8244C12.3325 17.2919 13.5231 16.0469 14.9994 16.0075V14.5C14.9994 14.2237 15.2231 14 15.4994 14H16.4994C16.7756 14 16.9994 14.2237 16.9994 14.5V16.0181C17.705 16.0544 18.3913 16.3 18.96 16.7275C19.2038 16.9106 19.2162 17.2756 18.9956 17.4862L18.2612 18.1869C18.0881 18.3519 17.8306 18.3594 17.6281 18.2325C17.3863 18.0806 17.1119 18 16.8269 18H15.07C14.6637 18 14.3325 18.37 14.3325 18.8244C14.3325 19.1963 14.5581 19.5238 14.8806 19.62L17.6931 20.4638C18.855 20.8125 19.6669 21.9275 19.6669 23.1756C19.6669 24.7087 18.4763 25.9531 17 25.9925Z" fill="#164E21"/>
</svg>
