<svg width="32" height="32" viewBox="0 0 32 32" fill="none" xmlns="http://www.w3.org/2000/svg">
<path d="M16.0321 1.34996C16.0724 1.74631 15.9536 2.14244 15.702 2.45125C15.4503 2.76006 15.0863 2.95626 14.6899 2.99671C12.2405 3.25147 9.91334 4.19507 7.97809 5.71818C6.04285 7.24129 4.57871 9.28158 3.75531 11.6027C2.93191 13.9238 2.78294 16.4307 3.32566 18.833C3.86838 21.2353 5.08058 23.4346 6.82183 25.1762C8.56307 26.9178 10.7621 28.1304 13.1641 28.6735C15.5662 29.2166 18.0729 29.068 20.394 28.2448C22.715 27.4217 24.7554 25.9578 26.2786 24.0226C27.8019 22.0874 28.7458 19.7602 29.0009 17.3106C29.0181 17.1121 29.0747 16.9191 29.1673 16.7427C29.2599 16.5662 29.3867 16.41 29.5403 16.283C29.6938 16.1561 29.8711 16.0609 30.0617 16.0031C30.2524 15.9453 30.4527 15.926 30.6509 15.9463C30.8491 15.9667 31.0412 16.0262 31.2162 16.1215C31.3912 16.2168 31.5454 16.346 31.67 16.5015C31.7946 16.6569 31.887 16.8357 31.9419 17.0272C31.9968 17.2187 32.013 17.4193 31.9896 17.6171C31.6767 20.6321 30.5159 23.4967 28.6416 25.8789C26.7674 28.2611 24.2566 30.0634 21.4 31.0769C18.5435 32.0904 15.4583 32.2736 12.5019 31.6054C9.54552 30.9371 6.83901 29.4447 4.69604 27.301C2.55307 25.1574 1.06137 22.4504 0.393813 19.4936C-0.273741 16.5369 -0.0898184 13.4515 0.924266 10.595C1.93835 7.73851 3.74108 5.22789 6.12353 3.35407C8.50598 1.48026 11.3706 0.319989 14.3855 0.00771361C14.7818 -0.0325912 15.1779 0.0861658 15.4867 0.337871C15.7955 0.589576 15.9916 0.953622 16.0321 1.34996ZM18.0754 1.21774C18.1212 1.02559 18.2045 0.844385 18.3205 0.684477C18.4365 0.52457 18.5829 0.389104 18.7513 0.285832C18.9197 0.18256 19.1067 0.113509 19.3018 0.0826303C19.4969 0.0517515 19.6962 0.0596513 19.8883 0.105878C20.6455 0.286179 21.3847 0.522575 22.0978 0.80705C22.4578 0.961462 22.7432 1.25036 22.8933 1.61217C23.0434 1.97399 23.0462 2.38012 22.9013 2.74402C22.7563 3.10791 22.475 3.4008 22.1172 3.56027C21.7594 3.71974 21.3535 3.73317 20.986 3.59771C20.4006 3.36578 19.7995 3.17566 19.1871 3.02876C18.7999 2.93564 18.4655 2.69258 18.2574 2.35298C18.0493 2.01339 17.9826 1.60506 18.0754 1.21774ZM31.1904 9.89825C31.0429 9.52792 30.7544 9.23132 30.3883 9.07372C30.0222 8.91611 29.6085 8.9104 29.2382 9.05784C28.8679 9.20528 28.5714 9.4938 28.4138 9.85992C28.2562 10.226 28.2505 10.6398 28.3979 11.0101C28.6283 11.5911 28.8206 12.1921 28.9688 12.8091C29.0618 13.1967 29.3049 13.5315 29.6447 13.7398C29.813 13.843 29.9999 13.912 30.1948 13.9429C30.3897 13.9738 30.5888 13.966 30.7807 13.92C30.9726 13.8739 31.1536 13.7905 31.3133 13.6746C31.4729 13.5586 31.6082 13.4123 31.7114 13.244C31.8145 13.0758 31.8835 12.8888 31.9144 12.6939C31.9453 12.499 31.9375 12.2999 31.8915 12.1079C31.7111 11.3555 31.4768 10.617 31.1904 9.89825ZM24.6319 3.79204C24.8935 3.49163 25.2638 3.30746 25.6613 3.28003C26.0587 3.25261 26.4508 3.38417 26.7513 3.6458C27.3662 4.18069 27.9412 4.76166 28.47 5.3827C28.7282 5.68635 28.8552 6.08014 28.8231 6.47744C28.791 6.87475 28.6024 7.24302 28.2987 7.50124C27.9951 7.75946 27.6013 7.88648 27.2041 7.85436C26.8068 7.82224 26.4385 7.6336 26.1803 7.32995C25.749 6.82277 25.2803 6.34865 24.7781 5.91158C24.4777 5.64988 24.2935 5.27957 24.2661 4.88209C24.2387 4.48462 24.3703 4.09253 24.6319 3.79204ZM16.0381 7.44615C16.0381 7.04766 15.8798 6.66549 15.5981 6.38371C15.3163 6.10194 14.9342 5.94364 14.5357 5.94364C14.1372 5.94364 13.7551 6.10194 13.4733 6.38371C13.1916 6.66549 13.0333 7.04766 13.0333 7.44615V17.4629C13.0333 18.2943 13.7064 18.9654 14.5357 18.9654H20.5453C20.9438 18.9654 21.3259 18.8071 21.6077 18.5253C21.8894 18.2436 22.0477 17.8614 22.0477 17.4629C22.0477 17.0644 21.8894 16.6822 21.6077 16.4005C21.3259 16.1187 20.9438 15.9604 20.5453 15.9604H16.0381V7.44615Z" fill="#464646"/>
</svg>
