<svg width="32" height="32" viewBox="0 0 32 32" fill="none" xmlns="http://www.w3.org/2000/svg">
<path d="M5.33377 8.55308L1.00977 4.23042L2.89643 2.34375L7.2191 6.66775H27.5418C27.7496 6.66773 27.9545 6.7163 28.1403 6.80957C28.326 6.90284 28.4873 7.03824 28.6114 7.20494C28.7355 7.37165 28.8189 7.56506 28.855 7.76973C28.891 7.9744 28.8787 8.18467 28.8191 8.38375L25.6191 19.0504C25.5368 19.3252 25.368 19.5661 25.1379 19.7374C24.9078 19.9086 24.6286 20.0011 24.3418 20.0011H8.00043V22.6677H22.6671V25.3344H6.6671C6.31348 25.3344 5.97434 25.1939 5.72429 24.9439C5.47424 24.6938 5.33377 24.3547 5.33377 24.0011V8.55308ZM8.00043 9.33442V17.3344H23.3498L25.7498 9.33442H8.00043ZM7.33377 30.6677C6.80333 30.6677 6.29462 30.457 5.91955 30.082C5.54448 29.7069 5.33377 29.1982 5.33377 28.6677C5.33377 28.1373 5.54448 27.6286 5.91955 27.2535C6.29462 26.8785 6.80333 26.6677 7.33377 26.6677C7.8642 26.6677 8.37291 26.8785 8.74798 27.2535C9.12305 27.6286 9.33377 28.1373 9.33377 28.6677C9.33377 29.1982 9.12305 29.7069 8.74798 30.082C8.37291 30.457 7.8642 30.6677 7.33377 30.6677ZM23.3338 30.6677C22.8033 30.6677 22.2946 30.457 21.9196 30.082C21.5445 29.7069 21.3338 29.1982 21.3338 28.6677C21.3338 28.1373 21.5445 27.6286 21.9196 27.2535C22.2946 26.8785 22.8033 26.6677 23.3338 26.6677C23.8642 26.6677 24.3729 26.8785 24.748 27.2535C25.123 27.6286 25.3338 28.1373 25.3338 28.6677C25.3338 29.1982 25.123 29.7069 24.748 30.082C24.3729 30.457 23.8642 30.6677 23.3338 30.6677Z" fill="white"/>
</svg>
