<svg width="32" height="32" viewBox="0 0 32 32" fill="none" xmlns="http://www.w3.org/2000/svg">
<path d="M6.66732 26.6667C7.4037 26.6667 8.00065 26.0697 8.00065 25.3333C8.00065 24.597 7.4037 24 6.66732 24C5.93094 24 5.33398 24.597 5.33398 25.3333C5.33398 26.0697 5.93094 26.6667 6.66732 26.6667Z" fill="#464646"/>
<path d="M5.33398 5.33594H8.00065V17.3359H5.33398V5.33594Z" fill="#464646"/>
<path d="M9.33268 2.66406H3.99935C3.64573 2.66406 3.30659 2.80454 3.05654 3.05459C2.80649 3.30464 2.66602 3.64377 2.66602 3.9974V27.9974C2.66602 28.351 2.80649 28.6902 3.05654 28.9402C3.30659 29.1903 3.64573 29.3307 3.99935 29.3307H9.33268C9.6863 29.3307 10.0254 29.1903 10.2755 28.9402C10.5255 28.6902 10.666 28.351 10.666 27.9974V3.9974C10.666 3.64377 10.5255 3.30464 10.2755 3.05459C10.0254 2.80454 9.6863 2.66406 9.33268 2.66406ZM9.33268 27.9974H3.99935V3.9974H9.33268V27.9974Z" fill="#464646"/>
<path d="M15.9993 26.6667C16.7357 26.6667 17.3327 26.0697 17.3327 25.3333C17.3327 24.597 16.7357 24 15.9993 24C15.263 24 14.666 24.597 14.666 25.3333C14.666 26.0697 15.263 26.6667 15.9993 26.6667Z" fill="#464646"/>
<path d="M14.666 5.33594H17.3327V17.3359H14.666V5.33594Z" fill="#464646"/>
<path d="M18.6667 2.66406H13.3333C12.9797 2.66406 12.6406 2.80454 12.3905 3.05459C12.1405 3.30464 12 3.64377 12 3.9974V27.9974C12 28.351 12.1405 28.6902 12.3905 28.9402C12.6406 29.1903 12.9797 29.3307 13.3333 29.3307H18.6667C19.0203 29.3307 19.3594 29.1903 19.6095 28.9402C19.8595 28.6902 20 28.351 20 27.9974V3.9974C20 3.64377 19.8595 3.30464 19.6095 3.05459C19.3594 2.80454 19.0203 2.66406 18.6667 2.66406ZM18.6667 27.9974H13.3333V3.9974H18.6667V27.9974Z" fill="#464646"/>
<path d="M25.3333 26.6667C26.0697 26.6667 26.6667 26.0697 26.6667 25.3333C26.6667 24.597 26.0697 24 25.3333 24C24.597 24 24 24.597 24 25.3333C24 26.0697 24.597 26.6667 25.3333 26.6667Z" fill="#464646"/>
<path d="M24 5.33594H26.6667V17.3359H24V5.33594Z" fill="#464646"/>
<path d="M28.0007 2.66406H22.6673C22.3137 2.66406 21.9746 2.80454 21.7245 3.05459C21.4745 3.30464 21.334 3.64377 21.334 3.9974V27.9974C21.334 28.351 21.4745 28.6902 21.7245 28.9402C21.9746 29.1903 22.3137 29.3307 22.6673 29.3307H28.0007C28.3543 29.3307 28.6934 29.1903 28.9435 28.9402C29.1935 28.6902 29.334 28.351 29.334 27.9974V3.9974C29.334 3.64377 29.1935 3.30464 28.9435 3.05459C28.6934 2.80454 28.3543 2.66406 28.0007 2.66406ZM28.0007 27.9974H22.6673V3.9974H28.0007V27.9974Z" fill="#464646"/>
</svg>
