<svg width="32" height="32" viewBox="0 0 32 32" fill="none" xmlns="http://www.w3.org/2000/svg">
<path d="M16 7.33594C17.2377 7.33594 18.4247 7.8276 19.2998 8.70277C20.175 9.57794 20.6667 10.7649 20.6667 12.0026C20.6667 13.2403 20.175 14.4273 19.2998 15.3024C18.4247 16.1776 17.2377 16.6693 16 16.6693C14.7623 16.6693 13.5753 16.1776 12.7002 15.3024C11.825 14.4273 11.3333 13.2403 11.3333 12.0026C11.3333 10.7649 11.825 9.57794 12.7002 8.70277C13.5753 7.8276 14.7623 7.33594 16 7.33594ZM6.66667 10.6693C7.41333 10.6693 8.10667 10.8693 8.70667 11.2293C8.50667 13.1359 9.06667 15.0293 10.2133 16.5093C9.54667 17.7893 8.21333 18.6693 6.66667 18.6693C5.6058 18.6693 4.58839 18.2478 3.83824 17.4977C3.08809 16.7476 2.66667 15.7301 2.66667 14.6693C2.66667 13.6084 3.08809 12.591 3.83824 11.8408C4.58839 11.0907 5.6058 10.6693 6.66667 10.6693ZM25.3333 10.6693C26.3942 10.6693 27.4116 11.0907 28.1618 11.8408C28.9119 12.591 29.3333 13.6084 29.3333 14.6693C29.3333 15.7301 28.9119 16.7476 28.1618 17.4977C27.4116 18.2478 26.3942 18.6693 25.3333 18.6693C23.7867 18.6693 22.4533 17.7893 21.7867 16.5093C22.9492 15.0085 23.4888 13.1175 23.2933 11.2293C23.8933 10.8693 24.5867 10.6693 25.3333 10.6693ZM7.33333 24.3359C7.33333 21.5759 11.2133 19.3359 16 19.3359C20.7867 19.3359 24.6667 21.5759 24.6667 24.3359V26.6693H7.33333V24.3359ZM0 26.6693V24.6693C0 22.8159 2.52 21.2559 5.93333 20.8026C5.14667 21.7093 4.66667 22.9626 4.66667 24.3359V26.6693H0ZM32 26.6693H27.3333V24.3359C27.3333 22.9626 26.8533 21.7093 26.0667 20.8026C29.48 21.2559 32 22.8159 32 24.6693V26.6693Z" fill="white"/>
</svg>
