<svg width="32" height="20" viewBox="0 0 32 20" fill="none" xmlns="http://www.w3.org/2000/svg">
<path d="M16 0.335938C17.2377 0.335938 18.4247 0.827603 19.2998 1.70277C20.175 2.57794 20.6667 3.76493 20.6667 5.0026C20.6667 6.24028 20.175 7.42726 19.2998 8.30243C18.4247 9.1776 17.2377 9.66927 16 9.66927C14.7623 9.66927 13.5753 9.1776 12.7002 8.30243C11.825 7.42726 11.3333 6.24028 11.3333 5.0026C11.3333 3.76493 11.825 2.57794 12.7002 1.70277C13.5753 0.827603 14.7623 0.335938 16 0.335938ZM6.66667 3.66927C7.41333 3.66927 8.10667 3.86927 8.70667 4.22927C8.50667 6.13594 9.06667 8.02927 10.2133 9.50927C9.54667 10.7893 8.21333 11.6693 6.66667 11.6693C5.6058 11.6693 4.58839 11.2478 3.83824 10.4977C3.08809 9.74755 2.66667 8.73014 2.66667 7.66927C2.66667 6.6084 3.08809 5.59099 3.83824 4.84084C4.58839 4.0907 5.6058 3.66927 6.66667 3.66927ZM25.3333 3.66927C26.3942 3.66927 27.4116 4.0907 28.1618 4.84084C28.9119 5.59099 29.3333 6.6084 29.3333 7.66927C29.3333 8.73014 28.9119 9.74755 28.1618 10.4977C27.4116 11.2478 26.3942 11.6693 25.3333 11.6693C23.7867 11.6693 22.4533 10.7893 21.7867 9.50927C22.9492 8.0085 23.4888 6.11753 23.2933 4.22927C23.8933 3.86927 24.5867 3.66927 25.3333 3.66927ZM7.33333 17.3359C7.33333 14.5759 11.2133 12.3359 16 12.3359C20.7867 12.3359 24.6667 14.5759 24.6667 17.3359V19.6693H7.33333V17.3359ZM0 19.6693V17.6693C0 15.8159 2.52 14.2559 5.93333 13.8026C5.14667 14.7093 4.66667 15.9626 4.66667 17.3359V19.6693H0ZM32 19.6693H27.3333V17.3359C27.3333 15.9626 26.8533 14.7093 26.0667 13.8026C29.48 14.2559 32 15.8159 32 17.6693V19.6693Z" fill="#464646"/>
</svg>
