<svg width="104" height="104" viewBox="0 0 104 104" fill="none" xmlns="http://www.w3.org/2000/svg">
<path fill-rule="evenodd" clip-rule="evenodd" d="M101.1 12.2338C101.713 11.6217 102.2 10.8948 102.532 10.0948C102.864 9.2947 103.035 8.43709 103.035 7.57089C103.036 6.70469 102.866 5.84687 102.535 5.04641C102.204 4.24594 101.718 3.51851 101.106 2.90564C100.494 2.29277 99.7672 1.80646 98.9672 1.47449C98.1671 1.14252 97.3095 0.971384 96.4433 0.970851C95.5771 0.970319 94.7193 1.1404 93.9188 1.47139C93.1183 1.80238 92.3909 2.28779 91.778 2.8999L52.0002 42.6778L12.2338 2.8999C10.996 1.66216 9.31728 0.966797 7.56684 0.966797C5.8164 0.966797 4.13765 1.66216 2.8999 2.8999C1.66216 4.13765 0.966797 5.8164 0.966797 7.56684C0.966797 9.31728 1.66216 10.996 2.8999 12.2338L42.6778 52.0002L2.8999 91.7666C2.28703 92.3794 1.80088 93.107 1.46919 93.9078C1.13751 94.7085 0.966797 95.5668 0.966797 96.4335C0.966797 97.3002 1.13751 98.1585 1.46919 98.9592C1.80088 99.76 2.28703 100.488 2.8999 101.1C4.13765 102.338 5.8164 103.034 7.56684 103.034C8.43357 103.034 9.29181 102.863 10.0926 102.531C10.8933 102.199 11.6209 101.713 12.2338 101.1L52.0002 61.3226L91.778 101.1C93.0158 102.337 94.6939 103.031 96.4433 103.029C98.1927 103.028 99.87 102.332 101.106 101.095C102.342 99.8569 103.036 98.1788 103.035 96.4295C103.034 94.6801 102.338 93.0028 101.1 91.7666L61.3226 52.0002L101.1 12.2338Z" fill="#227638"/>
</svg>
