<svg width="18" height="18" viewBox="0 0 18 18" fill="none" xmlns="http://www.w3.org/2000/svg">
<path d="M2.46292 17.5798C2.0155 17.5798 1.63235 17.4203 1.31346 17.1014C0.995111 16.7831 0.835938 16.4002 0.835938 15.9528V4.56387C0.835938 4.11645 0.995111 3.73329 1.31346 3.4144C1.63235 3.09606 2.0155 2.93688 2.46292 2.93688H9.72335L8.09636 4.56387H2.46292V15.9528H13.8518V10.299L15.4788 8.67201V15.9528C15.4788 16.4002 15.3196 16.7831 15.0013 17.1014C14.6824 17.4203 14.2992 17.5798 13.8518 17.5798H2.46292ZM11.5537 3.40464L12.7129 4.54353L7.34388 9.91258V11.0718H8.48277L13.8722 5.68242L15.0314 6.82131L9.17424 12.6988H5.71689V9.24145L11.5537 3.40464ZM15.0314 6.82131L11.5537 3.40464L13.5874 1.37091C13.9128 1.04551 14.3028 0.882812 14.7572 0.882812C15.2112 0.882812 15.5941 1.04551 15.9059 1.37091L17.0448 2.53014C17.3566 2.84197 17.5125 3.2216 17.5125 3.66903C17.5125 4.11645 17.3566 4.49608 17.0448 4.80791L15.0314 6.82131Z" fill="#464646"/>
</svg>
