<?xml version="1.0" encoding="UTF-8" standalone="no"?> <svg width="64" height="64" viewBox="0 0 64 64" fill="none" xmlns="http://www.w3.org/2000/svg">
<path d="M55.54 14.18H43.74C44.8377 12.6196 45.2837 10.6927 44.9834 8.80868C44.6831 6.92466 43.66 5.23197 42.1316 4.0902C40.6032 2.94844 38.6898 2.44757 36.798 2.694C34.9061 2.94044 33.1849 3.91476 32 5.40997C30.8151 3.91476 29.0939 2.94044 27.2021 2.694C25.3102 2.44757 23.3969 2.94844 21.8684 4.0902C20.34 5.23197 19.317 6.92466 19.0166 8.80868C18.7163 10.6927 19.1623 12.6196 20.26 14.18H8.46001C7.06743 14.2302 5.73576 14.7636 4.69354 15.6886C3.65133 16.6135 2.96357 17.8724 2.74831 19.2492C2.53304 20.6259 2.80369 22.0347 3.51381 23.2337C4.22393 24.4326 5.32923 25.3471 6.64001 25.82V56C6.64265 57.4579 7.22296 58.8553 8.25384 59.8861C9.28472 60.917 10.6821 61.4973 12.14 61.5H51.86C53.3179 61.4973 54.7153 60.917 55.7462 59.8861C56.7771 58.8553 57.3574 57.4579 57.36 56V25.82C58.6708 25.3471 59.7761 24.4326 60.4862 23.2337C61.1963 22.0347 61.467 20.6259 61.2517 19.2492C61.0364 17.8724 60.3487 16.6135 59.3065 15.6886C58.2643 14.7636 56.9326 14.2302 55.54 14.18V14.18ZM25.54 58.5H12.14C11.477 58.5 10.8411 58.2366 10.3722 57.7677C9.9034 57.2989 9.64001 56.663 9.64001 56V26.1H25.51L25.54 58.5ZM25.54 23.1H8.54001C7.83848 22.9843 7.20086 22.6231 6.74083 22.081C6.2808 21.5389 6.02827 20.851 6.02827 20.14C6.02827 19.429 6.2808 18.7411 6.74083 18.1989C7.20086 17.6568 7.83848 17.2957 8.54001 17.18H25.51L25.54 23.1ZM21.82 9.83997C21.82 8.68894 22.2773 7.58504 23.0912 6.77113C23.9051 5.95722 25.009 5.49997 26.16 5.49997C27.311 5.49997 28.4149 5.95722 29.2289 6.77113C30.0428 7.58504 30.5 8.68894 30.5 9.83997V14.18H26.16C25.0098 14.1773 23.9074 13.7192 23.0941 12.9059C22.2807 12.0926 21.8227 10.9902 21.82 9.83997V9.83997ZM33.5 14.18V9.83997C33.5 8.9816 33.7545 8.14251 34.2314 7.4288C34.7083 6.71509 35.3861 6.15882 36.1792 5.83034C36.9722 5.50185 37.8448 5.41591 38.6867 5.58337C39.5286 5.75083 40.3019 6.16417 40.9089 6.77113C41.5158 7.37809 41.9292 8.15141 42.0966 8.99328C42.2641 9.83516 42.1781 10.7078 41.8496 11.5008C41.5212 12.2939 40.9649 12.9717 40.2512 13.4486C39.5375 13.9254 38.6984 14.18 37.84 14.18H33.5ZM54.36 56C54.36 56.663 54.0966 57.2989 53.6278 57.7677C53.1589 58.2366 52.523 58.5 51.86 58.5H38.49V26.1H54.36V56ZM55.54 23.1H38.54V17.18H55.54C56.2415 17.2957 56.8792 17.6568 57.3392 18.1989C57.7992 18.7411 58.0517 19.429 58.0517 20.14C58.0517 20.851 57.7992 21.5389 57.3392 22.081C56.8792 22.6231 56.2415 22.9843 55.54 23.1Z" fill="black"/>
</svg>
